# xmcd
#
# Track frame offsets:
# 150
# 16982
# 36089
# 55516
# 76955
# 99810
# 124527
# 143781
# 167418
# 183080
#
# Disc length: 2741 seconds
#
# Revision: 0
# Processed by: cddbd v1.4PL0 Copyright (c) Steve Scherf et al.
# Submitted via: Axialis_AX_CDPlayer 2.6
#
DISCID=670ab30a
DTITLE=Gloria Gaynor - The best Of
DYEAR=1900
DGENRE=
TTITLE0=I Will Survive
TTITLE1=Stop in the name of love
TTITLE2=Runaround love
TTITLE3=Mack side
TTITLE4=Tease me
TTITLE5=America
TTITLE6=For you, my love
TTITLE7=Love me real
TTITLE8=Even a fool would let go
TTITLE9=I will survive (remix)
EXTD=
EXTT0=
EXTT1=
EXTT2=
EXTT3=
EXTT4=
EXTT5=
EXTT6=
EXTT7=
EXTT8=
EXTT9=
PLAYORDER=
